<?xml version="1.0" encoding="UTF-8" standalone="no"?>
<svg xmlns="http://www.w3.org/2000/svg" version="1.1" width="374pt" height="100pt">
<rect x="0pt" y="0pt" width="374pt" height="100pt" style="fill:#ffffff;fill-opacity:1" />
<!-- Printing barcode for "1554949; UPDATE * SET price=1", scaled  1.00, encoded using "code 128-B" -->
<!-- The space/bar succession is represented by the following widths (space first): 02112141232212132122132122212313211222212313211223122122122222131313131211123131113232133111321132122222213122122222131131321132133112122221112421212411421121411221122143222111232211131232331112 -->
<line x1="11.000000pt" y1="85.000000pt" x2="11.000000pt" y2="10.000000pt" style="stroke:rgb(0,0,0);stroke-width:1.850000pt" />
<line x1="13.500000pt" y1="85.000000pt" x2="13.500000pt" y2="10.000000pt" style="stroke:rgb(0,0,0);stroke-width:0.850000pt" />
<line x1="16.500000pt" y1="85.000000pt" x2="16.500000pt" y2="10.000000pt" style="stroke:rgb(0,0,0);stroke-width:0.850000pt" />
<line x1="21.500000pt" y1="80.000000pt" x2="21.500000pt" y2="10.000000pt" style="stroke:rgb(0,0,0);stroke-width:0.850000pt" />
<line x1="25.500000pt" y1="80.000000pt" x2="25.500000pt" y2="10.000000pt" style="stroke:rgb(0,0,0);stroke-width:2.850000pt" />
<line x1="30.000000pt" y1="80.000000pt" x2="30.000000pt" y2="10.000000pt" style="stroke:rgb(0,0,0);stroke-width:1.850000pt" />
<line x1="33.000000pt" y1="80.000000pt" x2="33.000000pt" y2="10.000000pt" style="stroke:rgb(0,0,0);stroke-width:1.850000pt" />
<line x1="36.500000pt" y1="80.000000pt" x2="36.500000pt" y2="10.000000pt" style="stroke:rgb(0,0,0);stroke-width:2.850000pt" />
<line x1="40.500000pt" y1="80.000000pt" x2="40.500000pt" y2="10.000000pt" style="stroke:rgb(0,0,0);stroke-width:0.850000pt" />
<line x1="44.000000pt" y1="80.000000pt" x2="44.000000pt" y2="10.000000pt" style="stroke:rgb(0,0,0);stroke-width:1.850000pt" />
<line x1="47.500000pt" y1="80.000000pt" x2="47.500000pt" y2="10.000000pt" style="stroke:rgb(0,0,0);stroke-width:2.850000pt" />
<line x1="51.500000pt" y1="80.000000pt" x2="51.500000pt" y2="10.000000pt" style="stroke:rgb(0,0,0);stroke-width:0.850000pt" />
<line x1="55.000000pt" y1="80.000000pt" x2="55.000000pt" y2="10.000000pt" style="stroke:rgb(0,0,0);stroke-width:1.850000pt" />
<line x1="58.500000pt" y1="80.000000pt" x2="58.500000pt" y2="10.000000pt" style="stroke:rgb(0,0,0);stroke-width:0.850000pt" />
<line x1="62.500000pt" y1="80.000000pt" x2="62.500000pt" y2="10.000000pt" style="stroke:rgb(0,0,0);stroke-width:2.850000pt" />
<line x1="66.500000pt" y1="80.000000pt" x2="66.500000pt" y2="10.000000pt" style="stroke:rgb(0,0,0);stroke-width:2.850000pt" />
<line x1="70.500000pt" y1="80.000000pt" x2="70.500000pt" y2="10.000000pt" style="stroke:rgb(0,0,0);stroke-width:0.850000pt" />
<line x1="73.000000pt" y1="80.000000pt" x2="73.000000pt" y2="10.000000pt" style="stroke:rgb(0,0,0);stroke-width:1.850000pt" />
<line x1="77.000000pt" y1="80.000000pt" x2="77.000000pt" y2="10.000000pt" style="stroke:rgb(0,0,0);stroke-width:1.850000pt" />
<line x1="80.500000pt" y1="80.000000pt" x2="80.500000pt" y2="10.000000pt" style="stroke:rgb(0,0,0);stroke-width:0.850000pt" />
<line x1="84.500000pt" y1="80.000000pt" x2="84.500000pt" y2="10.000000pt" style="stroke:rgb(0,0,0);stroke-width:2.850000pt" />
<line x1="88.500000pt" y1="80.000000pt" x2="88.500000pt" y2="10.000000pt" style="stroke:rgb(0,0,0);stroke-width:2.850000pt" />
<line x1="92.500000pt" y1="80.000000pt" x2="92.500000pt" y2="10.000000pt" style="stroke:rgb(0,0,0);stroke-width:0.850000pt" />
<line x1="95.000000pt" y1="80.000000pt" x2="95.000000pt" y2="10.000000pt" style="stroke:rgb(0,0,0);stroke-width:1.850000pt" />
<line x1="99.500000pt" y1="80.000000pt" x2="99.500000pt" y2="10.000000pt" style="stroke:rgb(0,0,0);stroke-width:2.850000pt" />
<line x1="103.000000pt" y1="80.000000pt" x2="103.000000pt" y2="10.000000pt" style="stroke:rgb(0,0,0);stroke-width:1.850000pt" />
<line x1="106.500000pt" y1="80.000000pt" x2="106.500000pt" y2="10.000000pt" style="stroke:rgb(0,0,0);stroke-width:0.850000pt" />
<line x1="110.000000pt" y1="80.000000pt" x2="110.000000pt" y2="10.000000pt" style="stroke:rgb(0,0,0);stroke-width:1.850000pt" />
<line x1="113.000000pt" y1="80.000000pt" x2="113.000000pt" y2="10.000000pt" style="stroke:rgb(0,0,0);stroke-width:1.850000pt" />
<line x1="117.000000pt" y1="80.000000pt" x2="117.000000pt" y2="10.000000pt" style="stroke:rgb(0,0,0);stroke-width:1.850000pt" />
<line x1="121.000000pt" y1="80.000000pt" x2="121.000000pt" y2="10.000000pt" style="stroke:rgb(0,0,0);stroke-width:1.850000pt" />
<line x1="124.500000pt" y1="80.000000pt" x2="124.500000pt" y2="10.000000pt" style="stroke:rgb(0,0,0);stroke-width:2.850000pt" />
<line x1="128.500000pt" y1="80.000000pt" x2="128.500000pt" y2="10.000000pt" style="stroke:rgb(0,0,0);stroke-width:2.850000pt" />
<line x1="132.500000pt" y1="80.000000pt" x2="132.500000pt" y2="10.000000pt" style="stroke:rgb(0,0,0);stroke-width:2.850000pt" />
<line x1="136.500000pt" y1="80.000000pt" x2="136.500000pt" y2="10.000000pt" style="stroke:rgb(0,0,0);stroke-width:2.850000pt" />
<line x1="140.000000pt" y1="80.000000pt" x2="140.000000pt" y2="10.000000pt" style="stroke:rgb(0,0,0);stroke-width:1.850000pt" />
<line x1="142.500000pt" y1="80.000000pt" x2="142.500000pt" y2="10.000000pt" style="stroke:rgb(0,0,0);stroke-width:0.850000pt" />
<line x1="145.000000pt" y1="80.000000pt" x2="145.000000pt" y2="10.000000pt" style="stroke:rgb(0,0,0);stroke-width:1.850000pt" />
<line x1="149.500000pt" y1="80.000000pt" x2="149.500000pt" y2="10.000000pt" style="stroke:rgb(0,0,0);stroke-width:0.850000pt" />
<line x1="153.500000pt" y1="80.000000pt" x2="153.500000pt" y2="10.000000pt" style="stroke:rgb(0,0,0);stroke-width:0.850000pt" />
<line x1="155.500000pt" y1="80.000000pt" x2="155.500000pt" y2="10.000000pt" style="stroke:rgb(0,0,0);stroke-width:0.850000pt" />
<line x1="160.000000pt" y1="80.000000pt" x2="160.000000pt" y2="10.000000pt" style="stroke:rgb(0,0,0);stroke-width:1.850000pt" />
<line x1="165.000000pt" y1="80.000000pt" x2="165.000000pt" y2="10.000000pt" style="stroke:rgb(0,0,0);stroke-width:1.850000pt" />
<line x1="168.500000pt" y1="80.000000pt" x2="168.500000pt" y2="10.000000pt" style="stroke:rgb(0,0,0);stroke-width:2.850000pt" />
<line x1="173.500000pt" y1="80.000000pt" x2="173.500000pt" y2="10.000000pt" style="stroke:rgb(0,0,0);stroke-width:0.850000pt" />
<line x1="175.500000pt" y1="80.000000pt" x2="175.500000pt" y2="10.000000pt" style="stroke:rgb(0,0,0);stroke-width:0.850000pt" />
<line x1="180.000000pt" y1="80.000000pt" x2="180.000000pt" y2="10.000000pt" style="stroke:rgb(0,0,0);stroke-width:1.850000pt" />
<line x1="182.500000pt" y1="80.000000pt" x2="182.500000pt" y2="10.000000pt" style="stroke:rgb(0,0,0);stroke-width:0.850000pt" />
<line x1="187.000000pt" y1="80.000000pt" x2="187.000000pt" y2="10.000000pt" style="stroke:rgb(0,0,0);stroke-width:1.850000pt" />
<line x1="190.000000pt" y1="80.000000pt" x2="190.000000pt" y2="10.000000pt" style="stroke:rgb(0,0,0);stroke-width:1.850000pt" />
<line x1="194.000000pt" y1="80.000000pt" x2="194.000000pt" y2="10.000000pt" style="stroke:rgb(0,0,0);stroke-width:1.850000pt" />
<line x1="198.000000pt" y1="80.000000pt" x2="198.000000pt" y2="10.000000pt" style="stroke:rgb(0,0,0);stroke-width:1.850000pt" />
<line x1="201.500000pt" y1="80.000000pt" x2="201.500000pt" y2="10.000000pt" style="stroke:rgb(0,0,0);stroke-width:0.850000pt" />
<line x1="205.500000pt" y1="80.000000pt" x2="205.500000pt" y2="10.000000pt" style="stroke:rgb(0,0,0);stroke-width:0.850000pt" />
<line x1="209.000000pt" y1="80.000000pt" x2="209.000000pt" y2="10.000000pt" style="stroke:rgb(0,0,0);stroke-width:1.850000pt" />
<line x1="212.000000pt" y1="80.000000pt" x2="212.000000pt" y2="10.000000pt" style="stroke:rgb(0,0,0);stroke-width:1.850000pt" />
<line x1="216.000000pt" y1="80.000000pt" x2="216.000000pt" y2="10.000000pt" style="stroke:rgb(0,0,0);stroke-width:1.850000pt" />
<line x1="220.000000pt" y1="80.000000pt" x2="220.000000pt" y2="10.000000pt" style="stroke:rgb(0,0,0);stroke-width:1.850000pt" />
<line x1="223.500000pt" y1="80.000000pt" x2="223.500000pt" y2="10.000000pt" style="stroke:rgb(0,0,0);stroke-width:2.850000pt" />
<line x1="226.500000pt" y1="80.000000pt" x2="226.500000pt" y2="10.000000pt" style="stroke:rgb(0,0,0);stroke-width:0.850000pt" />
<line x1="230.500000pt" y1="80.000000pt" x2="230.500000pt" y2="10.000000pt" style="stroke:rgb(0,0,0);stroke-width:0.850000pt" />
<line x1="235.000000pt" y1="80.000000pt" x2="235.000000pt" y2="10.000000pt" style="stroke:rgb(0,0,0);stroke-width:1.850000pt" />
<line x1="237.500000pt" y1="80.000000pt" x2="237.500000pt" y2="10.000000pt" style="stroke:rgb(0,0,0);stroke-width:0.850000pt" />
<line x1="242.000000pt" y1="80.000000pt" x2="242.000000pt" y2="10.000000pt" style="stroke:rgb(0,0,0);stroke-width:1.850000pt" />
<line x1="245.500000pt" y1="80.000000pt" x2="245.500000pt" y2="10.000000pt" style="stroke:rgb(0,0,0);stroke-width:2.850000pt" />
<line x1="250.500000pt" y1="80.000000pt" x2="250.500000pt" y2="10.000000pt" style="stroke:rgb(0,0,0);stroke-width:0.850000pt" />
<line x1="253.000000pt" y1="80.000000pt" x2="253.000000pt" y2="10.000000pt" style="stroke:rgb(0,0,0);stroke-width:1.850000pt" />
<line x1="256.000000pt" y1="80.000000pt" x2="256.000000pt" y2="10.000000pt" style="stroke:rgb(0,0,0);stroke-width:1.850000pt" />
<line x1="260.000000pt" y1="80.000000pt" x2="260.000000pt" y2="10.000000pt" style="stroke:rgb(0,0,0);stroke-width:1.850000pt" />
<line x1="263.500000pt" y1="80.000000pt" x2="263.500000pt" y2="10.000000pt" style="stroke:rgb(0,0,0);stroke-width:0.850000pt" />
<line x1="265.500000pt" y1="80.000000pt" x2="265.500000pt" y2="10.000000pt" style="stroke:rgb(0,0,0);stroke-width:0.850000pt" />
<line x1="270.000000pt" y1="80.000000pt" x2="270.000000pt" y2="10.000000pt" style="stroke:rgb(0,0,0);stroke-width:3.850000pt" />
<line x1="274.500000pt" y1="80.000000pt" x2="274.500000pt" y2="10.000000pt" style="stroke:rgb(0,0,0);stroke-width:0.850000pt" />
<line x1="277.500000pt" y1="80.000000pt" x2="277.500000pt" y2="10.000000pt" style="stroke:rgb(0,0,0);stroke-width:0.850000pt" />
<line x1="282.000000pt" y1="80.000000pt" x2="282.000000pt" y2="10.000000pt" style="stroke:rgb(0,0,0);stroke-width:3.850000pt" />
<line x1="285.500000pt" y1="80.000000pt" x2="285.500000pt" y2="10.000000pt" style="stroke:rgb(0,0,0);stroke-width:0.850000pt" />
<line x1="291.000000pt" y1="80.000000pt" x2="291.000000pt" y2="10.000000pt" style="stroke:rgb(0,0,0);stroke-width:1.850000pt" />
<line x1="293.500000pt" y1="80.000000pt" x2="293.500000pt" y2="10.000000pt" style="stroke:rgb(0,0,0);stroke-width:0.850000pt" />
<line x1="296.500000pt" y1="80.000000pt" x2="296.500000pt" y2="10.000000pt" style="stroke:rgb(0,0,0);stroke-width:0.850000pt" />
<line x1="301.500000pt" y1="80.000000pt" x2="301.500000pt" y2="10.000000pt" style="stroke:rgb(0,0,0);stroke-width:0.850000pt" />
<line x1="304.000000pt" y1="80.000000pt" x2="304.000000pt" y2="10.000000pt" style="stroke:rgb(0,0,0);stroke-width:1.850000pt" />
<line x1="307.500000pt" y1="80.000000pt" x2="307.500000pt" y2="10.000000pt" style="stroke:rgb(0,0,0);stroke-width:0.850000pt" />
<line x1="310.000000pt" y1="80.000000pt" x2="310.000000pt" y2="10.000000pt" style="stroke:rgb(0,0,0);stroke-width:1.850000pt" />
<line x1="313.500000pt" y1="80.000000pt" x2="313.500000pt" y2="10.000000pt" style="stroke:rgb(0,0,0);stroke-width:0.850000pt" />
<line x1="319.500000pt" y1="80.000000pt" x2="319.500000pt" y2="10.000000pt" style="stroke:rgb(0,0,0);stroke-width:2.850000pt" />
<line x1="324.000000pt" y1="80.000000pt" x2="324.000000pt" y2="10.000000pt" style="stroke:rgb(0,0,0);stroke-width:1.850000pt" />
<line x1="327.500000pt" y1="80.000000pt" x2="327.500000pt" y2="10.000000pt" style="stroke:rgb(0,0,0);stroke-width:0.850000pt" />
<line x1="329.500000pt" y1="80.000000pt" x2="329.500000pt" y2="10.000000pt" style="stroke:rgb(0,0,0);stroke-width:0.850000pt" />
<line x1="333.500000pt" y1="80.000000pt" x2="333.500000pt" y2="10.000000pt" style="stroke:rgb(0,0,0);stroke-width:2.850000pt" />
<line x1="338.000000pt" y1="80.000000pt" x2="338.000000pt" y2="10.000000pt" style="stroke:rgb(0,0,0);stroke-width:1.850000pt" />
<line x1="340.500000pt" y1="80.000000pt" x2="340.500000pt" y2="10.000000pt" style="stroke:rgb(0,0,0);stroke-width:0.850000pt" />
<line x1="343.500000pt" y1="80.000000pt" x2="343.500000pt" y2="10.000000pt" style="stroke:rgb(0,0,0);stroke-width:2.850000pt" />
<line x1="347.000000pt" y1="80.000000pt" x2="347.000000pt" y2="10.000000pt" style="stroke:rgb(0,0,0);stroke-width:1.850000pt" />
<line x1="352.000000pt" y1="85.000000pt" x2="352.000000pt" y2="10.000000pt" style="stroke:rgb(0,0,0);stroke-width:1.850000pt" />
<line x1="357.500000pt" y1="85.000000pt" x2="357.500000pt" y2="10.000000pt" style="stroke:rgb(0,0,0);stroke-width:2.850000pt" />
<line x1="360.500000pt" y1="85.000000pt" x2="360.500000pt" y2="10.000000pt" style="stroke:rgb(0,0,0);stroke-width:0.850000pt" />
<line x1="363.000000pt" y1="85.000000pt" x2="363.000000pt" y2="10.000000pt" style="stroke:rgb(0,0,0);stroke-width:1.850000pt" />
<text x="21.000000pt" y="90.000000pt" fill="black" style="font-family:Helvetica;font-size:12pt">1</text>
<text x="32.000000pt" y="90.000000pt" fill="black" style="font-family:Helvetica;font-size:12pt">5</text>
<text x="43.000000pt" y="90.000000pt" fill="black" style="font-family:Helvetica;font-size:12pt">5</text>
<text x="54.000000pt" y="90.000000pt" fill="black" style="font-family:Helvetica;font-size:12pt">4</text>
<text x="65.000000pt" y="90.000000pt" fill="black" style="font-family:Helvetica;font-size:12pt">9</text>
<text x="76.000000pt" y="90.000000pt" fill="black" style="font-family:Helvetica;font-size:12pt">4</text>
<text x="87.000000pt" y="90.000000pt" fill="black" style="font-family:Helvetica;font-size:12pt">9</text>
<text x="98.000000pt" y="90.000000pt" fill="black" style="font-family:Helvetica;font-size:12pt">;</text>
<text x="109.000000pt" y="90.000000pt" fill="black" style="font-family:Helvetica;font-size:12pt"> </text>
<text x="120.000000pt" y="90.000000pt" fill="black" style="font-family:Helvetica;font-size:12pt">U</text>
<text x="131.000000pt" y="90.000000pt" fill="black" style="font-family:Helvetica;font-size:12pt">P</text>
<text x="142.000000pt" y="90.000000pt" fill="black" style="font-family:Helvetica;font-size:12pt">D</text>
<text x="153.000000pt" y="90.000000pt" fill="black" style="font-family:Helvetica;font-size:12pt">A</text>
<text x="164.000000pt" y="90.000000pt" fill="black" style="font-family:Helvetica;font-size:12pt">T</text>
<text x="175.000000pt" y="90.000000pt" fill="black" style="font-family:Helvetica;font-size:12pt">E</text>
<text x="186.000000pt" y="90.000000pt" fill="black" style="font-family:Helvetica;font-size:12pt"> </text>
<text x="197.000000pt" y="90.000000pt" fill="black" style="font-family:Helvetica;font-size:12pt">*</text>
<text x="208.000000pt" y="90.000000pt" fill="black" style="font-family:Helvetica;font-size:12pt"> </text>
<text x="219.000000pt" y="90.000000pt" fill="black" style="font-family:Helvetica;font-size:12pt">S</text>
<text x="230.000000pt" y="90.000000pt" fill="black" style="font-family:Helvetica;font-size:12pt">E</text>
<text x="241.000000pt" y="90.000000pt" fill="black" style="font-family:Helvetica;font-size:12pt">T</text>
<text x="252.000000pt" y="90.000000pt" fill="black" style="font-family:Helvetica;font-size:12pt"> </text>
<text x="263.000000pt" y="90.000000pt" fill="black" style="font-family:Helvetica;font-size:12pt">p</text>
<text x="274.000000pt" y="90.000000pt" fill="black" style="font-family:Helvetica;font-size:12pt">r</text>
<text x="285.000000pt" y="90.000000pt" fill="black" style="font-family:Helvetica;font-size:12pt">i</text>
<text x="296.000000pt" y="90.000000pt" fill="black" style="font-family:Helvetica;font-size:12pt">c</text>
<text x="307.000000pt" y="90.000000pt" fill="black" style="font-family:Helvetica;font-size:12pt">e</text>
<text x="318.000000pt" y="90.000000pt" fill="black" style="font-family:Helvetica;font-size:12pt">=</text>
<text x="329.000000pt" y="90.000000pt" fill="black" style="font-family:Helvetica;font-size:12pt">1</text>
<!-- End barcode for "1554949; UPDATE * SET price=1" -->

</svg>
